<svg width="304" height="217" viewBox="0 0 304 217" fill="none" xmlns="http://www.w3.org/2000/svg">
<g clip-path="url(#clip0_1_1466)">
<path d="M222.806 0.125488H0.594727V142.016H222.806V0.125488Z" fill="#E6E6E6"/>
<path d="M216.452 17.9219H6.94897V133.621H216.452V17.9219Z" fill="white"/>
<path d="M222.711 0H0.5V9.41215H222.711V0Z" fill="#F0DD30"/>
<path d="M7.51547 6.55689C8.48188 6.55689 9.26531 5.77579 9.26531 4.81226C9.26531 3.84873 8.48188 3.06763 7.51547 3.06763C6.54906 3.06763 5.76562 3.84873 5.76562 4.81226C5.76562 5.77579 6.54906 6.55689 7.51547 6.55689Z" fill="white"/>
<path d="M14.1568 6.55689C15.1232 6.55689 15.9067 5.77579 15.9067 4.81226C15.9067 3.84873 15.1232 3.06763 14.1568 3.06763C13.1904 3.06763 12.407 3.84873 12.407 4.81226C12.407 5.77579 13.1904 6.55689 14.1568 6.55689Z" fill="white"/>
<path d="M20.7982 6.55689C21.7646 6.55689 22.548 5.77579 22.548 4.81226C22.548 3.84873 21.7646 3.06763 20.7982 3.06763C19.8318 3.06763 19.0483 3.84873 19.0483 4.81226C19.0483 5.77579 19.8318 6.55689 20.7982 6.55689Z" fill="white"/>
<path d="M73.7015 27.4386H32.7258V71.7613H73.7015V27.4386Z" fill="#E6E6E6"/>
<path d="M132.188 27.4386H91.2124V71.7613H132.188V27.4386Z" fill="#E6E6E6"/>
<path d="M190.674 27.4386H149.698V71.7613H190.674V27.4386Z" fill="#E6E6E6"/>
<path d="M73.7015 79.7837H32.7258V124.106H73.7015V79.7837Z" fill="#E6E6E6"/>
<path d="M132.188 79.7837H91.2124V124.106H132.188V79.7837Z" fill="#E6E6E6"/>
<path d="M190.674 79.7837H149.698V124.106H190.674V79.7837Z" fill="#E6E6E6"/>
<path d="M101.116 91.1749L108.603 88.2238L109.474 102.979C109.474 102.979 111.04 107.492 110.518 109.228C110.518 109.228 110.866 112.18 109.996 112.353C109.125 112.527 106.687 112.874 106.515 112.7C106.342 112.526 106.341 112.006 106.341 112.006C106.341 112.006 104.599 113.221 104.425 114.609C104.425 114.609 97.1127 116.866 96.9386 114.783C96.7646 112.7 100.595 110.964 100.595 110.964L103.555 106.45L101.116 91.1749Z" fill="white"/>
<path d="M116.961 91.1749L124.447 88.2238L125.317 102.979C125.317 102.979 126.884 107.492 126.362 109.228C126.362 109.228 126.71 112.18 125.839 112.353C124.969 112.527 122.531 112.874 122.358 112.7C122.186 112.526 122.184 112.006 122.184 112.006C122.184 112.006 120.443 113.221 120.269 114.609C120.269 114.609 112.956 116.866 112.782 114.783C112.608 112.7 116.439 110.964 116.439 110.964L119.398 106.45L116.961 91.1749Z" fill="white"/>
<path d="M117.692 34.195C117.692 34.195 116.098 38.6362 117.945 40.6389L116.405 45.9147C116.405 45.9147 121.877 62.2793 120.313 64.5651C120.313 64.5651 114.478 67.4743 102.805 63.526L107.546 45.1872L106.869 37.4465L107.807 33.8098L109.891 33.6036C109.891 33.6036 108.64 38.2791 110.933 39.0066C113.226 39.7341 115.462 33.7205 115.462 33.7205L117.692 34.195Z" fill="#3F3D56"/>
<path d="M44.0723 62.8635L46.084 63.6841L55.6856 51.1026L58.7031 65.872L60.7149 65.5075C62.0053 52.7741 63.0586 39.7864 61.7665 33.6436L54.3139 33.3243L50.9307 44.0839L49.2846 51.3775L44.0723 62.8635Z" fill="white"/>
<path d="M166.171 33.5428C166.171 33.5428 163.425 37.3483 163.559 38.884C163.694 40.4197 165.434 65.4562 165.434 65.4562L169.519 65.6565L168.313 47.6302L169.317 42.7564L171.795 65.4562L176.818 65.5899L172.331 36.1469L171.46 33.5432L166.171 33.5428Z" fill="white"/>
<path d="M181.688 94.8494C180.959 93.9773 179.706 93.5058 178.503 93.2508C178.537 93.1419 174.843 92.3807 174.78 92.5374L173.388 91.4313L169.108 93.6467L166.703 92.0144L165.586 92.4096C165.632 92.213 162.119 92.8199 162.119 92.8199C161.448 92.844 160.59 92.8859 159.631 92.9594C156.271 93.2171 156.012 101.894 156.012 101.894C157.558 101.263 159.206 100.919 160.876 100.878L161.784 111.256C166.456 110.857 171.355 111.322 176.432 112.459L178.814 104.301L184.359 102.151C184.359 102.151 183.411 96.9109 181.688 94.8494Z" fill="#3F3D56"/>
<path d="M62.691 89.9075C62.0903 89.189 61.058 88.8003 60.0664 88.5904C60.0961 88.5003 57.051 87.8735 56.999 88.0027L55.8512 87.0914L52.3257 88.9168L50.3442 87.5722L49.424 87.8979C49.4616 87.7361 46.5668 88.2357 46.5668 88.2357C46.0153 88.2557 45.3074 88.29 44.5171 88.3508C41.7484 88.5632 41.5354 95.7119 41.5354 95.7119C42.8093 95.1923 44.1675 94.9087 45.5435 94.8751L46.2917 115.807C50.1405 115.478 54.1772 115.861 58.36 116.798L60.3218 97.6956L64.891 95.9242C64.891 95.9242 64.1107 91.6068 62.691 89.9075Z" fill="white"/>
<path d="M258.806 95.4793H278.452V84.9984C278.452 82.401 277.417 79.91 275.575 78.0733C273.733 76.2367 271.234 75.2048 268.629 75.2048C266.024 75.2048 263.525 76.2367 261.683 78.0733C259.841 79.91 258.806 82.401 258.806 84.9984V95.4793Z" fill="#2F2E41"/>
<path d="M250.036 212.09H245.811L243.801 195.838H250.037L250.036 212.09Z" fill="#FFB6B6"/>
<path d="M251.114 210.714H242.792C241.386 210.714 240.037 211.271 239.043 212.263C238.048 213.254 237.489 214.599 237.489 216.001V216.173H251.114V210.714Z" fill="#2F2E41"/>
<path d="M300.548 206.467L296.868 208.539L287.104 195.374L292.535 192.317L300.548 206.467Z" fill="#FFB6B6"/>
<path d="M300.808 204.741L293.561 208.819C292.337 209.508 291.437 210.655 291.06 212.006C290.683 213.356 290.859 214.801 291.551 216.023L291.635 216.172L303.5 209.494L300.808 204.741Z" fill="#2F2E41"/>
<path d="M273.542 139.008L273.868 140.634C273.868 140.634 274.846 141.609 274.357 142.097C273.868 142.584 274.031 144.86 274.031 144.86C274.305 149.01 279.743 172.329 280.716 176.883C280.716 176.883 288.216 181.76 294.085 191.35C299.954 200.941 300.117 203.379 300.117 203.379L293.596 206.143L277.294 186.474C277.294 186.474 272.729 183.711 271.098 181.272C269.468 178.834 259.358 153.638 259.358 153.638L253.65 179.972C253.65 179.972 253.976 189.562 252.509 195.739C251.607 199.638 251.061 203.609 250.879 207.606L243.216 206.793C243.216 206.793 243.705 183.711 244.52 181.272C244.52 181.272 241.096 153.15 247.944 141.934L253.463 127.265L258.868 125.191L273.542 139.008Z" fill="#2F2E41"/>
<path d="M268.73 77.767C258.443 77.9422 258.445 93.1986 268.73 93.3721C279.017 93.1969 279.015 77.9405 268.73 77.767Z" fill="#FFB8B8"/>
<path d="M260.813 85.1647H262.561L263.037 83.9777L262.799 85.1647H272.362L272.052 82.6812L274.376 85.1647H276.695V83.819C276.695 82.7794 276.491 81.7498 276.092 80.789C275.694 79.8282 275.11 78.9551 274.373 78.2194C273.636 77.4838 272.761 76.9 271.798 76.5015C270.835 76.103 269.803 75.8975 268.76 75.8967C267.717 75.896 266.685 76.1 265.721 76.4972C264.757 76.8944 263.882 77.4769 263.144 78.2115C262.406 78.9461 261.82 79.8184 261.421 80.7786C261.021 81.7389 260.815 82.7682 260.814 83.8078V83.819L260.813 85.1647Z" fill="#2F2E41"/>
<path d="M258.122 97.928L277.561 98.085L273.454 139.636C273.454 139.636 250.721 138.44 250.707 131.522L252.836 125.374L258.122 97.928Z" fill="#3F3D56"/>
<path d="M278.397 143.653C278.098 143.288 277.883 142.862 277.767 142.406C277.651 141.949 277.637 141.473 277.726 141.01C277.814 140.547 278.004 140.11 278.281 139.728C278.557 139.346 278.915 139.029 279.327 138.8L278.482 131.485L282.816 129.889L283.863 140.236C284.201 140.953 284.265 141.768 284.041 142.528C283.817 143.288 283.322 143.94 282.649 144.36C281.976 144.781 281.172 144.941 280.388 144.811C279.605 144.681 278.896 144.269 278.397 143.653Z" fill="#FFB6B6"/>
<path d="M275.005 101.665L277.563 98.1001C277.563 98.1001 279.313 97.7129 281.381 100.118C283.449 102.524 284.656 132.592 284.656 132.592L277.073 134.31L272.593 113.005L275.005 101.665Z" fill="#3F3D56"/>
<path d="M232.159 134.271L232.723 160.985L250.068 170.124L281.655 164.5L282.431 136.732L262.406 129.702L232.159 134.271Z" fill="white"/>
<path d="M250.022 170.412L232.449 161.153L231.876 134.035L262.433 129.419L262.499 129.441L282.713 136.538L281.926 164.732L250.022 170.412ZM232.996 160.816L250.113 169.835L281.385 164.267L282.148 136.925L262.38 129.985L232.441 134.508L232.996 160.816Z" fill="#CACACA"/>
<path d="M249.68 141.514L249.612 141.487L232.056 134.528L232.261 134.015L249.749 140.947L282.393 136.458L282.469 137.005L249.68 141.514Z" fill="#CACACA"/>
<path d="M249.992 141.227L249.438 141.234L249.791 170.127L250.344 170.12L249.992 141.227Z" fill="#CACACA"/>
<path d="M247.462 140.132L241.133 137.573L271.6 132.733L277.928 135.291L247.462 140.132Z" fill="#CACACA"/>
<path d="M232.268 142.021L232.049 142.528L239.389 145.679L239.608 145.171L232.268 142.021Z" fill="#CACACA"/>
<path d="M235.592 151.134L235.373 151.641L242.713 154.792L242.932 154.285L235.592 151.134Z" fill="#F0DD30"/>
<path d="M135.654 171.384L136.217 198.097L153.562 207.236L185.15 201.612L185.926 173.844L165.901 166.814L135.654 171.384Z" fill="white"/>
<path d="M153.517 207.524L135.944 198.265L135.371 171.147L165.928 166.531L165.993 166.554L186.208 173.651L185.421 201.844L153.517 207.524ZM136.491 197.929L153.608 206.947L184.88 201.38L185.643 174.038L165.875 167.098L135.935 171.621L136.491 197.929Z" fill="#CACACA"/>
<path d="M153.175 178.627L153.108 178.6L135.551 171.64L135.756 171.127L153.244 178.06L185.888 173.571L185.964 174.118L153.175 178.627Z" fill="#CACACA"/>
<path d="M153.487 178.34L152.933 178.347L153.286 207.239L153.84 207.233L153.487 178.34Z" fill="#CACACA"/>
<path d="M149.424 176.615L144.628 174.686L175.094 169.846L179.89 171.775L149.424 176.615Z" fill="#CACACA"/>
<path d="M135.763 179.133L135.544 179.64L142.884 182.791L143.103 182.284L135.763 179.133Z" fill="#CACACA"/>
<path d="M139.087 188.246L138.868 188.754L146.208 191.905L146.427 191.397L139.087 188.246Z" fill="#F0DD30"/>
<path d="M165.787 175.047L166.441 206.056L186.576 216.665L223.244 210.137L224.145 177.903L200.9 169.742L165.787 175.047Z" fill="#F0DD30"/>
<path d="M186.523 217L166.124 206.252L165.459 174.772L200.931 169.413L201.006 169.44L224.472 177.678L223.558 210.406L186.523 217ZM166.759 205.861L186.628 216.33L222.93 209.867L223.816 178.128L200.868 170.071L166.114 175.321L166.759 205.861Z" fill="#3F3D56"/>
<path d="M186.127 183.455L186.048 183.423L165.668 175.344L165.905 174.749L186.207 182.796L224.101 177.585L224.188 178.22L186.127 183.455Z" fill="#3F3D56"/>
<path d="M186.488 183.121L185.845 183.129L186.254 216.669L186.897 216.661L186.488 183.121Z" fill="#3F3D56"/>
<path d="M182.098 181.134L176.205 178.88L211.571 173.261L217.464 175.515L182.098 181.134Z" fill="#3F3D56"/>
<path d="M165.914 184.042L165.659 184.631L174.18 188.289L174.434 187.7L165.914 184.042Z" fill="#3F3D56"/>
<path d="M169.772 194.621L169.518 195.21L178.038 198.868L178.293 198.279L169.772 194.621Z" fill="white"/>
<path d="M241.993 138.689C242.42 138.488 242.799 138.197 243.101 137.835C243.404 137.474 243.623 137.05 243.744 136.595C243.865 136.14 243.884 135.663 243.8 135.2C243.716 134.736 243.531 134.297 243.259 133.912L247.195 127.682L243.982 124.373L238.546 133.249C237.929 133.749 237.516 134.457 237.387 135.24C237.259 136.022 237.422 136.825 237.847 137.495C238.271 138.165 238.928 138.657 239.692 138.877C240.456 139.097 241.275 139.03 241.993 138.689V138.689Z" fill="#FFB6B6"/>
<path d="M261.109 99.5658L258.289 97.7129C258.289 97.7129 256.112 98.1995 253.798 102.639C251.483 107.078 242.148 126.924 242.148 126.924L245.985 130.807L256.222 115.237L261.109 99.5658Z" fill="#3F3D56"/>
</g>
<defs>
<clipPath id="clip0_1_1466">
<rect width="303" height="217" fill="white" transform="translate(0.5)"/>
</clipPath>
</defs>
</svg>
